<svg width="48" height="45" viewBox="0 0 48 45" fill="none" xmlns="http://www.w3.org/2000/svg">
<path d="M20.5335 26.7751L15.3853 21.9586C14.9513 21.5526 14.4187 21.3496 13.7875 21.3496C13.1563 21.3496 12.604 21.571 12.1306 22.0139C11.6967 22.4199 11.4797 22.9366 11.4797 23.5641C11.4797 24.1915 11.6967 24.7082 12.1306 25.1142L18.8766 31.4256C19.3106 31.8316 19.8629 32.0346 20.5335 32.0346C21.2042 32.0346 21.7565 31.8316 22.1904 31.4256L35.6232 18.8582C36.0572 18.4522 36.2741 17.954 36.2741 17.3634C36.2741 16.7729 36.0374 16.2562 35.564 15.8133C35.1301 15.4073 34.5778 15.2043 33.9071 15.2043C33.2365 15.2043 32.6842 15.4073 32.2502 15.8133L20.5335 26.7751ZM23.8473 44.9341C20.573 44.9341 17.4959 44.3525 14.616 43.1891C11.7361 42.0272 9.23105 40.4497 7.10075 38.4567C4.97044 36.4636 3.28434 34.1199 2.04245 31.4256C0.798981 28.7313 0.177246 25.8524 0.177246 22.789C0.177246 19.7256 0.798981 16.8467 2.04245 14.1524C3.28434 11.4581 4.97044 9.11437 7.10075 7.12131C9.23105 5.12825 11.7361 3.55004 14.616 2.38668C17.4959 1.2248 20.573 0.64386 23.8473 0.64386C27.1217 0.64386 30.1988 1.2248 33.0787 2.38668C35.9585 3.55004 38.4636 5.12825 40.5939 7.12131C42.7242 9.11437 44.4103 11.4581 45.6522 14.1524C46.8957 16.8467 47.5174 19.7256 47.5174 22.789C47.5174 25.8524 46.8957 28.7313 45.6522 31.4256C44.4103 34.1199 42.7242 36.4636 40.5939 38.4567C38.4636 40.4497 35.9585 42.0272 33.0787 43.1891C30.1988 44.3525 27.1217 44.9341 23.8473 44.9341Z" fill="#19940E"/>
</svg>
