<svg width="53" height="36" viewBox="0 0 53 36" fill="none" xmlns="http://www.w3.org/2000/svg">
<path d="M33.6057 22.5723C27.2207 22.5723 14.4744 25.5176 14.4744 31.4304V35.8594H52.737V31.4304C52.737 25.5176 39.9908 22.5723 33.6057 22.5723ZM33.6057 18.1433C36.1427 18.1433 38.5757 17.21 40.3696 15.5488C42.1636 13.8876 43.1714 11.6345 43.1714 9.28524C43.1714 6.93594 42.1636 4.68286 40.3696 3.02165C38.5757 1.36044 36.1427 0.427185 33.6057 0.427185C31.0688 0.427185 28.6357 1.36044 26.8418 3.02165C25.0479 4.68286 24.0401 6.93594 24.0401 9.28524C24.0401 11.6345 25.0479 13.8876 26.8418 15.5488C28.6357 17.21 31.0688 18.1433 33.6057 18.1433ZM9.69162 20.9779L15.5506 24.2775L13.9962 18.0547L19.2573 13.8914L12.3461 13.3378L9.69162 7.49148L6.98932 13.3378L0.125977 13.8914L5.33925 18.0547L3.71309 24.2775L9.69162 20.9779Z" fill="white"/>
</svg>
